<?xml version="1.0" encoding="UTF-8"?>
<?xml-model href="https://raw.githubusercontent.com/Thiago-Morais/DecentSampler-schema/refs/heads/development/DecentSampler.xsd"?>
<DecentSampler>
	<effects>
		<effect type="highpass" frequency="100.0" />
		<effect type="chorus" mix="0.1377191245555878" modDepth="0.2" modRate="0.2" />
		<effect type="delay" delayTimeFormat="musical_time" delayTime="10" stereoOffset="0.01" feedback="0.3" wetLevel="0.5" />
		<effect type="reverb" wetLevel="1.0" />
		<effect type="gain" level="0" />
	</effects>
	<ui width="812" height="375" bgImage="Resources/Images/Tenor Trombone.png">
		<tab name="main">
			<labeled-knob x="565" y="25" width="90" textSize="20" textColor="FF000000" trackForegroundColor="CC000000" trackBackgroundColor="66999999" label="Attack" type="float" minValue="0.0" maxValue="4.0" value="0.01">
				<binding type="amp" level="instrument" position="0" parameter="ENV_ATTACK" />
			</labeled-knob>
			<labeled-knob x="635" y="25" width="90" textSize="20" textColor="FF000000" trackForegroundColor="CC000000" trackBackgroundColor="66999999" label="Release" type="float" minValue="0.0" maxValue="20.0" value="0.16">
				<binding type="amp" level="instrument" position="0" parameter="ENV_RELEASE" />
			</labeled-knob>
			<labeled-knob x="705" y="25" width="90" textSize="20" textColor="FF000000" trackForegroundColor="CC000000" trackBackgroundColor="66999999" label="Highpass" type="float" minValue="0" maxValue="1" value="0">
				<binding type="effect" level="instrument" position="0" parameter="FX_FILTER_FREQUENCY" translation="table" translationTable="0,33;0.3,150;0.4,450;0.5,1100;0.7,4100;0.9,11000;11,22000" />
			</labeled-knob>
			<labeled-knob x="565" y="115" width="90" textSize="20" textColor="FF000000" trackForegroundColor="CC000000" trackBackgroundColor="66999999" label="Chorus" type="float" minValue="0.0" maxValue="1" value="0">
				<binding type="effect" level="instrument" position="1" parameter="FX_MIX" />
			</labeled-knob>
			<labeled-knob x="635" y="115" width="90" textSize="20" textColor="FF000000" trackForegroundColor="CC000000" trackBackgroundColor="66999999" label="Delay" type="musical_time" minValue="0" maxValue="20" value="0" defaultValue="0">
				<binding type="effect" level="instrument" position="2" parameter="FX_DELAY_TIME" />
			</labeled-knob>
			<labeled-knob x="705" y="115" width="90" textSize="20" textColor="FF000000" trackForegroundColor="CC000000" trackBackgroundColor="66999999" label="Reverb" type="float" minValue="0.0" maxValue="1" value="0">
				<binding type="effect" level="instrument" position="3" parameter="FX_REVERB_WET_LEVEL" />
			</labeled-knob>
		</tab>
		<keyboard />
	</ui>
	<groups attack="0.030" release="0.024">
		<group name="Group 1" ampVelTrack="0">
			<sample end="199424" hiNote="54" hiVel="127" loNote="52" loVel="75" path="Resources/Tenor Trombone - Ensemble Samples/2_F.wav" rootNote="53" />
			<sample end="210432" hiNote="58" hiVel="127" loNote="55" loVel="75" path="Resources/Tenor Trombone - Ensemble Samples/2_A.wav" rootNote="57" />
			<sample end="183539" hiNote="61" hiVel="127" loNote="59" loVel="75" path="Resources/Tenor Trombone - Ensemble Samples/3_C.wav" rootNote="60" />
			<sample end="217344" hiNote="64" hiVel="127" loNote="62" loVel="75" path="Resources/Tenor Trombone - Ensemble Samples/3_Eb.wav" rootNote="63" />
			<sample end="131328" hiNote="67" hiVel="127" loNote="65" loVel="75" path="Resources/Tenor Trombone - Ensemble Samples/3_Gb.wav" rootNote="66" />
			<sample end="247552" hiNote="70" hiVel="127" loNote="68" loVel="75" path="Resources/Tenor Trombone - Ensemble Samples/3_A.wav" rootNote="69" />
			<sample end="167680" hiNote="73" hiVel="127" loNote="71" loVel="75" path="Resources/Tenor Trombone - Ensemble Samples/4_C.wav" rootNote="72" />
			<sample end="199661" hiNote="76" hiVel="127" loNote="74" loVel="75" path="Resources/Tenor Trombone - Ensemble Samples/4_Eb.wav" rootNote="75" />
			<sample end="194970" hiNote="79" hiVel="127" loNote="77" loVel="75" path="Resources/Tenor Trombone - Ensemble Samples/4_Gb.wav" rootNote="78" />
			<sample end="162304" hiNote="82" hiVel="127" loNote="80" loVel="75" path="Resources/Tenor Trombone - Ensemble Samples/4_A.wav" rootNote="81" />
			<sample end="169600" hiNote="89" hiVel="127" loNote="83" loVel="75" path="Resources/Tenor Trombone - Ensemble Samples/5_C.wav" rootNote="84" />
		</group>
		<group name="Group 2" ampVelTrack="0">
			<sample end="108297" hiNote="55" hiVel="90" loNote="52" loVel="0" path="Resources/Tenor Trombone - Ensemble Samples/2_F_p.wav" rootNote="53" tuning="-0.05" />
			<sample end="121750" hiNote="60" hiVel="90" loNote="56" loVel="0" path="Resources/Tenor Trombone - Ensemble Samples/2_Bb_p.wav" rootNote="58" tuning="-0.05" />
			<sample end="129107" hiNote="65" hiVel="90" loNote="61" loVel="0" path="Resources/Tenor Trombone - Ensemble Samples/3_Eb_p-PB-loop.wav" rootNote="63" tuning="-0.05" />
			<sample end="132098" hiNote="70" hiVel="90" loNote="66" loVel="0" path="Resources/Tenor Trombone - Ensemble Samples/3_Ab_p.wav" rootNote="68" />
			<sample end="135437" hiNote="75" hiVel="90" loNote="71" loVel="0" path="Resources/Tenor Trombone - Ensemble Samples/4_Db_p.wav" rootNote="73" />
			<sample end="111386" hiNote="80" hiVel="90" loNote="76" loVel="0" path="Resources/Tenor Trombone - Ensemble Samples/4_Gb_p.wav" rootNote="78" tuning="-0.15" />
			<sample end="100878" hiNote="89" hiVel="90" loNote="81" loVel="0" path="Resources/Tenor Trombone - Ensemble Samples/4_B_p.wav" rootNote="83" />
		</group>
		<group name="Group 3" ampVelTrack="0">
			<sample end="199424" hiNote="54" hiVel="127" loNote="52" loVel="75" path="Resources/Tenor Trombone - Ensemble Samples/2_F.wav" rootNote="53" />
			<sample end="210432" hiNote="58" hiVel="127" loNote="55" loVel="75" path="Resources/Tenor Trombone - Ensemble Samples/2_A.wav" rootNote="57" />
			<sample end="183539" hiNote="61" hiVel="127" loNote="59" loVel="75" path="Resources/Tenor Trombone - Ensemble Samples/3_C.wav" rootNote="60" />
			<sample end="217344" hiNote="64" hiVel="127" loNote="62" loVel="75" path="Resources/Tenor Trombone - Ensemble Samples/3_Eb.wav" rootNote="63" />
			<sample end="131328" hiNote="67" hiVel="127" loNote="65" loVel="75" path="Resources/Tenor Trombone - Ensemble Samples/3_Gb.wav" rootNote="66" />
			<sample end="247552" hiNote="70" hiVel="127" loNote="68" loVel="75" path="Resources/Tenor Trombone - Ensemble Samples/3_A.wav" rootNote="69" />
			<sample end="167680" hiNote="73" hiVel="127" loNote="71" loVel="75" path="Resources/Tenor Trombone - Ensemble Samples/4_C.wav" rootNote="72" />
			<sample end="199661" hiNote="76" hiVel="127" loNote="74" loVel="75" path="Resources/Tenor Trombone - Ensemble Samples/4_Eb.wav" rootNote="75" />
			<sample end="194970" hiNote="79" hiVel="127" loNote="77" loVel="75" path="Resources/Tenor Trombone - Ensemble Samples/4_Gb.wav" rootNote="78" />
			<sample end="162304" hiNote="82" hiVel="127" loNote="80" loVel="75" path="Resources/Tenor Trombone - Ensemble Samples/4_A.wav" rootNote="81" />
			<sample end="169600" hiNote="89" hiVel="127" loNote="83" loVel="75" path="Resources/Tenor Trombone - Ensemble Samples/5_C.wav" rootNote="84" />
		</group>
		<group name="Group 4" ampVelTrack="0">
			<sample end="108297" hiNote="55" hiVel="90" loNote="52" loVel="0" path="Resources/Tenor Trombone - Ensemble Samples/2_F_p.wav" rootNote="53" tuning="-0.05" />
			<sample end="121750" hiNote="60" hiVel="90" loNote="56" loVel="0" path="Resources/Tenor Trombone - Ensemble Samples/2_Bb_p.wav" rootNote="58" tuning="-0.05" />
			<sample end="129107" hiNote="65" hiVel="90" loNote="61" loVel="0" path="Resources/Tenor Trombone - Ensemble Samples/3_Eb_p-PB-loop.wav" rootNote="63" tuning="-0.05" />
			<sample end="132098" hiNote="70" hiVel="90" loNote="66" loVel="0" path="Resources/Tenor Trombone - Ensemble Samples/3_Ab_p.wav" rootNote="68" />
			<sample end="135437" hiNote="75" hiVel="90" loNote="71" loVel="0" path="Resources/Tenor Trombone - Ensemble Samples/4_Db_p.wav" rootNote="73" />
			<sample end="111386" hiNote="80" hiVel="90" loNote="76" loVel="0" path="Resources/Tenor Trombone - Ensemble Samples/4_Gb_p.wav" rootNote="78" tuning="-0.15" />
			<sample end="100878" hiNote="89" hiVel="90" loNote="81" loVel="0" path="Resources/Tenor Trombone - Ensemble Samples/4_B_p.wav" rootNote="83" />
		</group>
		<group name="Group 5" ampVelTrack="0">
			<sample end="199424" hiNote="54" hiVel="127" loNote="52" loVel="75" path="Resources/Tenor Trombone - Ensemble Samples/2_F.wav" rootNote="53" />
			<sample end="210432" hiNote="58" hiVel="127" loNote="55" loVel="75" path="Resources/Tenor Trombone - Ensemble Samples/2_A.wav" rootNote="57" />
			<sample end="183539" hiNote="61" hiVel="127" loNote="59" loVel="75" path="Resources/Tenor Trombone - Ensemble Samples/3_C.wav" rootNote="60" volume="2.0dB" />
			<sample end="217344" hiNote="64" hiVel="127" loNote="62" loVel="75" path="Resources/Tenor Trombone - Ensemble Samples/3_Eb.wav" rootNote="63" volume="1.0dB" />
			<sample end="131328" hiNote="67" hiVel="127" loNote="65" loVel="75" path="Resources/Tenor Trombone - Ensemble Samples/3_Gb.wav" rootNote="66" />
			<sample end="247552" hiNote="70" hiVel="127" loNote="68" loVel="75" path="Resources/Tenor Trombone - Ensemble Samples/3_A.wav" rootNote="69" />
			<sample end="167680" hiNote="73" hiVel="127" loNote="71" loVel="75" path="Resources/Tenor Trombone - Ensemble Samples/4_C.wav" rootNote="72" volume="-1.0dB" />
			<sample end="199661" hiNote="76" hiVel="127" loNote="74" loVel="75" path="Resources/Tenor Trombone - Ensemble Samples/4_Eb.wav" rootNote="75" />
			<sample end="194970" hiNote="79" hiVel="127" loNote="77" loVel="75" path="Resources/Tenor Trombone - Ensemble Samples/4_Gb.wav" rootNote="78" volume="-1.0dB" />
			<sample end="162304" hiNote="82" hiVel="127" loNote="80" loVel="75" path="Resources/Tenor Trombone - Ensemble Samples/4_A.wav" rootNote="81" />
			<sample end="169600" hiNote="89" hiVel="127" loNote="83" loVel="75" path="Resources/Tenor Trombone - Ensemble Samples/5_C.wav" rootNote="84" />
		</group>
		<group name="Group 6" ampVelTrack="0">
			<sample end="108297" hiNote="55" hiVel="90" loNote="52" loVel="0" path="Resources/Tenor Trombone - Ensemble Samples/2_F_p.wav" rootNote="53" tuning="-0.05" />
			<sample end="121750" hiNote="60" hiVel="90" loNote="56" loVel="0" path="Resources/Tenor Trombone - Ensemble Samples/2_Bb_p.wav" rootNote="58" tuning="-0.05" />
			<sample end="129107" hiNote="65" hiVel="90" loNote="61" loVel="0" path="Resources/Tenor Trombone - Ensemble Samples/3_Eb_p-PB-loop.wav" rootNote="63" tuning="-0.05" volume="1.0dB" />
			<sample end="132098" hiNote="70" hiVel="90" loNote="66" loVel="0" path="Resources/Tenor Trombone - Ensemble Samples/3_Ab_p.wav" rootNote="68" />
			<sample end="135437" hiNote="75" hiVel="90" loNote="71" loVel="0" path="Resources/Tenor Trombone - Ensemble Samples/4_Db_p.wav" rootNote="73" />
			<sample end="111386" hiNote="80" hiVel="90" loNote="76" loVel="0" path="Resources/Tenor Trombone - Ensemble Samples/4_Gb_p.wav" rootNote="78" tuning="-0.15" volume="-1.0dB" />
			<sample end="100878" hiNote="89" hiVel="90" loNote="81" loVel="0" path="Resources/Tenor Trombone - Ensemble Samples/4_B_p.wav" rootNote="83" />
		</group>
		<group name="Group 7" ampVelTrack="0">
			<sample end="199424" hiNote="54" hiVel="127" loNote="52" loVel="75" path="Resources/Tenor Trombone - Ensemble Samples/2_F.wav" rootNote="53" />
			<sample end="210432" hiNote="58" hiVel="127" loNote="55" loVel="75" path="Resources/Tenor Trombone - Ensemble Samples/2_A.wav" rootNote="57" />
			<sample end="183539" hiNote="61" hiVel="127" loNote="59" loVel="75" path="Resources/Tenor Trombone - Ensemble Samples/3_C.wav" rootNote="60" />
			<sample end="217344" hiNote="64" hiVel="127" loNote="62" loVel="75" path="Resources/Tenor Trombone - Ensemble Samples/3_Eb.wav" rootNote="63" />
			<sample end="131328" hiNote="67" hiVel="127" loNote="65" loVel="75" path="Resources/Tenor Trombone - Ensemble Samples/3_Gb.wav" rootNote="66" />
			<sample end="247552" hiNote="70" hiVel="127" loNote="68" loVel="75" path="Resources/Tenor Trombone - Ensemble Samples/3_A.wav" rootNote="69" />
			<sample end="167680" hiNote="73" hiVel="127" loNote="71" loVel="75" path="Resources/Tenor Trombone - Ensemble Samples/4_C.wav" rootNote="72" />
			<sample end="199661" hiNote="76" hiVel="127" loNote="74" loVel="75" path="Resources/Tenor Trombone - Ensemble Samples/4_Eb.wav" rootNote="75" />
			<sample end="194970" hiNote="79" hiVel="127" loNote="77" loVel="75" path="Resources/Tenor Trombone - Ensemble Samples/4_Gb.wav" rootNote="78" />
			<sample end="162304" hiNote="82" hiVel="127" loNote="80" loVel="75" path="Resources/Tenor Trombone - Ensemble Samples/4_A.wav" rootNote="81" />
			<sample end="169600" hiNote="89" hiVel="127" loNote="83" loVel="75" path="Resources/Tenor Trombone - Ensemble Samples/5_C.wav" rootNote="84" />
		</group>
		<group name="Group 8" ampVelTrack="0">
			<sample end="108297" hiNote="55" hiVel="90" loNote="52" loVel="0" path="Resources/Tenor Trombone - Ensemble Samples/2_F_p.wav" rootNote="53" tuning="-0.05" />
			<sample end="121750" hiNote="60" hiVel="90" loNote="56" loVel="0" path="Resources/Tenor Trombone - Ensemble Samples/2_Bb_p.wav" rootNote="58" tuning="-0.05" />
			<sample end="129107" hiNote="65" hiVel="90" loNote="61" loVel="0" path="Resources/Tenor Trombone - Ensemble Samples/3_Eb_p-PB-loop.wav" rootNote="63" tuning="-0.05" />
			<sample end="132098" hiNote="70" hiVel="90" loNote="66" loVel="0" path="Resources/Tenor Trombone - Ensemble Samples/3_Ab_p.wav" rootNote="68" />
			<sample end="135437" hiNote="75" hiVel="90" loNote="71" loVel="0" path="Resources/Tenor Trombone - Ensemble Samples/4_Db_p.wav" rootNote="73" />
			<sample end="111386" hiNote="80" hiVel="90" loNote="76" loVel="0" path="Resources/Tenor Trombone - Ensemble Samples/4_Gb_p.wav" rootNote="78" tuning="-0.15" />
			<sample end="100878" hiNote="89" hiVel="90" loNote="81" loVel="0" path="Resources/Tenor Trombone - Ensemble Samples/4_B_p.wav" rootNote="83" />
		</group>
		<group name="Group 9" ampVelTrack="0">
			<sample end="199424" hiNote="54" hiVel="127" loNote="52" loVel="75" path="Resources/Tenor Trombone - Ensemble Samples/2_F.wav" rootNote="53" />
			<sample end="210432" hiNote="58" hiVel="127" loNote="55" loVel="75" path="Resources/Tenor Trombone - Ensemble Samples/2_A.wav" rootNote="57" />
			<sample end="183539" hiNote="61" hiVel="127" loNote="59" loVel="75" path="Resources/Tenor Trombone - Ensemble Samples/3_C.wav" rootNote="60" volume="2.0dB" />
			<sample end="217344" hiNote="64" hiVel="127" loNote="62" loVel="75" path="Resources/Tenor Trombone - Ensemble Samples/3_Eb.wav" rootNote="63" volume="1.0dB" />
			<sample end="131328" hiNote="67" hiVel="127" loNote="65" loVel="75" path="Resources/Tenor Trombone - Ensemble Samples/3_Gb.wav" rootNote="66" />
			<sample end="247552" hiNote="70" hiVel="127" loNote="68" loVel="75" path="Resources/Tenor Trombone - Ensemble Samples/3_A.wav" rootNote="69" />
			<sample end="167680" hiNote="73" hiVel="127" loNote="71" loVel="75" path="Resources/Tenor Trombone - Ensemble Samples/4_C.wav" rootNote="72" volume="-1.0dB" />
			<sample end="199661" hiNote="76" hiVel="127" loNote="74" loVel="75" path="Resources/Tenor Trombone - Ensemble Samples/4_Eb.wav" rootNote="75" />
			<sample end="194970" hiNote="79" hiVel="127" loNote="77" loVel="75" path="Resources/Tenor Trombone - Ensemble Samples/4_Gb.wav" rootNote="78" volume="-1.0dB" />
			<sample end="162304" hiNote="82" hiVel="127" loNote="80" loVel="75" path="Resources/Tenor Trombone - Ensemble Samples/4_A.wav" rootNote="81" />
			<sample end="169600" hiNote="89" hiVel="127" loNote="83" loVel="75" path="Resources/Tenor Trombone - Ensemble Samples/5_C.wav" rootNote="84" />
		</group>
		<group name="Group 10" ampVelTrack="0">
			<sample end="108297" hiNote="55" hiVel="90" loNote="52" loVel="0" path="Resources/Tenor Trombone - Ensemble Samples/2_F_p.wav" rootNote="53" tuning="-0.05" />
			<sample end="121750" hiNote="60" hiVel="90" loNote="56" loVel="0" path="Resources/Tenor Trombone - Ensemble Samples/2_Bb_p.wav" rootNote="58" tuning="-0.05" />
			<sample end="129107" hiNote="65" hiVel="90" loNote="61" loVel="0" path="Resources/Tenor Trombone - Ensemble Samples/3_Eb_p-PB-loop.wav" rootNote="63" tuning="-0.05" volume="1.0dB" />
			<sample end="132098" hiNote="70" hiVel="90" loNote="66" loVel="0" path="Resources/Tenor Trombone - Ensemble Samples/3_Ab_p.wav" rootNote="68" />
			<sample end="135437" hiNote="75" hiVel="90" loNote="71" loVel="0" path="Resources/Tenor Trombone - Ensemble Samples/4_Db_p.wav" rootNote="73" />
			<sample end="111386" hiNote="80" hiVel="90" loNote="76" loVel="0" path="Resources/Tenor Trombone - Ensemble Samples/4_Gb_p.wav" rootNote="78" tuning="-0.15" volume="-1.0dB" />
			<sample end="100878" hiNote="89" hiVel="90" loNote="81" loVel="0" path="Resources/Tenor Trombone - Ensemble Samples/4_B_p.wav" rootNote="83" />
		</group>
	</groups>
	<midi>
		<cc number="1">
			<binding type="effect" level="instrument" position="4" parameter="LEVEL" translation="linear" translationOutputMin="-30" translationOutputMax="0" />
		</cc>
	</midi>
	<modulators />
</DecentSampler>
